<?xml version="1.0" encoding="UTF-8"?>
<svg xmlns="http://www.w3.org/2000/svg" xmlns:xlink="http://www.w3.org/1999/xlink" width="12pt" height="12pt" viewBox="0 0 12 12" version="1.1">
<g id="surface9594">
<path style=" stroke:none;fill-rule:nonzero;fill-opacity:1;" d="M 1.6875 0.375 C 1.378906 0.375 1.125 0.628906 1.125 0.9375 L 1.125 4.3125 C 1.125 4.621094 1.378906 4.875 1.6875 4.875 C 1.929688 4.875 2.136719 4.71875 2.214844 4.5 L 3.9375 4.5 C 4.039062 4.5 4.125 4.585938 4.125 4.6875 L 4.125 5.285156 C 3.90625 5.359375 3.75 5.570312 3.75 5.8125 C 3.75 6.054688 3.90625 6.265625 4.125 6.339844 L 4.125 7.6875 C 4.125 9.445312 5.554688 10.875 7.3125 10.875 L 10.160156 10.875 C 10.238281 11.09375 10.445312 11.25 10.6875 11.25 C 10.996094 11.25 11.25 10.996094 11.25 10.6875 L 11.25 7.3125 C 11.25 7.003906 10.996094 6.75 10.6875 6.75 C 10.445312 6.75 10.238281 6.90625 10.160156 7.125 L 8.0625 7.125 C 7.960938 7.125 7.875 7.039062 7.875 6.9375 L 7.875 6.339844 C 8.09375 6.265625 8.25 6.054688 8.25 5.8125 C 8.25 5.570312 8.09375 5.359375 7.875 5.285156 L 7.875 3.9375 C 7.875 2.179688 6.445312 0.75 4.6875 0.75 L 2.214844 0.75 C 2.136719 0.53125 1.929688 0.375 1.6875 0.375 Z M 1.6875 0.75 C 1.789062 0.75 1.875 0.835938 1.875 0.9375 L 1.875 4.3125 C 1.875 4.414062 1.789062 4.5 1.6875 4.5 C 1.585938 4.5 1.5 4.414062 1.5 4.3125 L 1.5 0.9375 C 1.5 0.835938 1.585938 0.75 1.6875 0.75 Z M 2.25 1.125 L 4.6875 1.125 C 6.238281 1.125 7.5 2.386719 7.5 3.9375 L 7.5 5.25 L 4.5 5.25 L 4.5 4.6875 C 4.5 4.378906 4.246094 4.125 3.9375 4.125 L 2.25 4.125 Z M 2.8125 1.5 C 2.707031 1.5 2.625 1.585938 2.625 1.6875 C 2.625 1.789062 2.707031 1.875 2.8125 1.875 L 3.1875 1.875 C 3.292969 1.875 3.375 1.789062 3.375 1.6875 C 3.375 1.585938 3.292969 1.5 3.1875 1.5 Z M 5.488281 1.648438 C 5.414062 1.652344 5.347656 1.695312 5.320312 1.769531 C 5.28125 1.867188 5.328125 1.972656 5.425781 2.011719 C 5.570312 2.066406 5.703125 2.136719 5.832031 2.222656 C 5.863281 2.242188 5.902344 2.253906 5.9375 2.253906 C 5.996094 2.253906 6.054688 2.222656 6.09375 2.167969 C 6.148438 2.082031 6.128906 1.96875 6.039062 1.910156 C 5.890625 1.808594 5.730469 1.726562 5.5625 1.660156 C 5.535156 1.652344 5.511719 1.648438 5.488281 1.648438 Z M 6.476562 2.359375 C 6.429688 2.355469 6.378906 2.367188 6.339844 2.398438 C 6.257812 2.460938 6.246094 2.582031 6.308594 2.660156 C 6.597656 3.027344 6.75 3.46875 6.75 3.9375 C 6.75 4.039062 6.832031 4.125 6.9375 4.125 C 7.042969 4.125 7.125 4.039062 7.125 3.9375 C 7.125 3.382812 6.945312 2.863281 6.601562 2.429688 C 6.570312 2.390625 6.527344 2.363281 6.476562 2.359375 Z M 2.8125 2.4375 C 2.707031 2.4375 2.625 2.523438 2.625 2.625 C 2.625 2.726562 2.707031 2.8125 2.8125 2.8125 L 3.1875 2.8125 C 3.292969 2.8125 3.375 2.726562 3.375 2.625 C 3.375 2.523438 3.292969 2.4375 3.1875 2.4375 Z M 2.8125 3.375 C 2.707031 3.375 2.625 3.460938 2.625 3.5625 C 2.625 3.664062 2.707031 3.75 2.8125 3.75 L 3.1875 3.75 C 3.292969 3.75 3.375 3.664062 3.375 3.5625 C 3.375 3.460938 3.292969 3.375 3.1875 3.375 Z M 4.3125 5.625 L 7.6875 5.625 C 7.789062 5.625 7.875 5.710938 7.875 5.8125 C 7.875 5.914062 7.789062 6 7.6875 6 L 4.3125 6 C 4.210938 6 4.125 5.914062 4.125 5.8125 C 4.125 5.710938 4.210938 5.625 4.3125 5.625 Z M 4.5 6.375 L 7.5 6.375 L 7.5 6.9375 C 7.5 7.246094 7.753906 7.5 8.0625 7.5 L 10.125 7.5 L 10.125 10.5 L 7.3125 10.5 C 5.761719 10.5 4.5 9.238281 4.5 7.6875 Z M 10.6875 7.125 C 10.789062 7.125 10.875 7.210938 10.875 7.3125 L 10.875 10.6875 C 10.875 10.789062 10.789062 10.875 10.6875 10.875 C 10.585938 10.875 10.5 10.789062 10.5 10.6875 L 10.5 7.3125 C 10.5 7.210938 10.585938 7.125 10.6875 7.125 Z M 9.1875 7.875 C 9.082031 7.875 9 7.960938 9 8.0625 C 9 8.164062 9.082031 8.25 9.1875 8.25 L 9.5625 8.25 C 9.667969 8.25 9.75 8.164062 9.75 8.0625 C 9.75 7.960938 9.667969 7.875 9.5625 7.875 Z M 9.1875 8.8125 C 9.082031 8.8125 9 8.898438 9 9 C 9 9.101562 9.082031 9.1875 9.1875 9.1875 L 9.5625 9.1875 C 9.667969 9.1875 9.75 9.101562 9.75 9 C 9.75 8.898438 9.667969 8.8125 9.5625 8.8125 Z M 9.1875 9.75 C 9.082031 9.75 9 9.835938 9 9.9375 C 9 10.039062 9.082031 10.125 9.1875 10.125 L 9.5625 10.125 C 9.667969 10.125 9.75 10.039062 9.75 9.9375 C 9.75 9.835938 9.667969 9.75 9.5625 9.75 Z M 9.1875 9.75 "/>
</g>
</svg>
