<?xml version="1.0" encoding="UTF-8"?>
<svg xmlns="http://www.w3.org/2000/svg" xmlns:xlink="http://www.w3.org/1999/xlink" width="16px" height="16px" viewBox="0 0 48 48" version="1.1">
<g id="surface9212">
<path style=" stroke:none;fill-rule:nonzero;fill-opacity:1;" d="M 45 33.3125 L 45 14.6875 C 45 12.953125 44.066406 11.335938 42.5625 10.464844 L 26.4375 1.15625 C 24.933594 0.289062 23.066406 0.289062 21.5625 1.15625 L 5.4375 10.464844 C 3.933594 11.335938 3 12.953125 3 14.6875 L 3 33.308594 C 3 35.042969 3.933594 36.660156 5.4375 37.53125 L 21.5625 46.839844 C 22.3125 47.277344 23.15625 47.492188 24 47.492188 C 24.84375 47.492188 25.6875 47.277344 26.4375 46.839844 L 42.5625 37.53125 C 44.066406 36.664062 45 35.046875 45 33.3125 Z M 41.4375 12.417969 C 41.5 12.453125 41.558594 12.496094 41.617188 12.535156 L 33.945312 16.96875 L 26.25 12.523438 L 33.9375 8.085938 Z M 22.875 44.984375 C 22.8125 44.953125 22.746094 44.929688 22.6875 44.890625 L 15.1875 40.558594 L 15.1875 31.6875 L 22.875 36.125 Z M 22.875 33.523438 L 14.625 28.761719 C 14.277344 28.558594 13.847656 28.558594 13.5 28.761719 C 13.152344 28.964844 12.9375 29.335938 12.9375 29.738281 L 12.9375 39.261719 L 6.5625 35.582031 C 5.753906 35.113281 5.25 34.246094 5.25 33.3125 L 5.25 14.6875 C 5.25 14.621094 5.257812 14.554688 5.265625 14.488281 L 22.875 24.65625 Z M 6.382812 12.535156 C 6.441406 12.496094 6.5 12.449219 6.5625 12.417969 L 22.6875 3.105469 C 23.496094 2.636719 24.503906 2.636719 25.3125 3.105469 L 31.6875 6.785156 L 23.4375 11.546875 C 23.089844 11.75 22.875 12.121094 22.875 12.519531 C 22.875 12.921875 23.089844 13.292969 23.4375 13.496094 L 31.695312 18.261719 L 24 22.710938 Z M 32.8125 20.21875 L 32.8125 29.089844 L 25.125 33.523438 L 25.125 24.65625 Z M 41.4375 35.582031 L 25.3125 44.894531 C 25.253906 44.929688 25.1875 44.957031 25.125 44.988281 L 25.125 36.125 L 34.5 30.710938 C 34.847656 30.511719 35.0625 30.140625 35.0625 29.738281 L 35.0625 18.917969 L 42.734375 14.488281 C 42.738281 14.558594 42.75 14.621094 42.75 14.6875 L 42.75 33.308594 C 42.75 34.246094 42.246094 35.113281 41.4375 35.582031 Z M 41.4375 35.582031 "/>
</g>
</svg>
