<?xml version="1.0" encoding="UTF-8"?>
<svg xmlns="http://www.w3.org/2000/svg" xmlns:xlink="http://www.w3.org/1999/xlink" width="12pt" height="12pt" viewBox="0 0 12 12" version="1.1">
<g id="surface8909">
<path style=" stroke:none;fill-rule:nonzero;fill-opacity:1;" d="M 7.5 1.875 L 7.5 3.1875 L 4.5 5.285156 L 4.5 4.5 L 0.75 4.5 L 0.75 7.5 L 4.5 7.5 L 4.5 6.714844 L 7.5 8.8125 L 7.5 10.125 L 11.25 10.125 L 11.25 7.125 L 7.5 7.125 L 7.5 7.910156 L 4.769531 6 L 7.5 4.089844 L 7.5 4.875 L 11.25 4.875 L 11.25 1.875 Z M 8.25 2.625 L 10.5 2.625 L 10.5 4.125 L 8.25 4.125 Z M 1.5 5.25 L 3.75 5.25 L 3.75 6.75 L 1.5 6.75 Z M 8.25 7.875 L 10.5 7.875 L 10.5 9.375 L 8.25 9.375 Z M 8.25 7.875 "/>
</g>
</svg>
